<svg xmlns="http://www.w3.org/2000/svg" viewBox="0 0 180 100">
  <path fill="#B2873D" d="M17 61c0-15 12-27 27-27 5-17 20-29 39-29 17 0 32 10 38 25 4-3 10-5 16-5 14 0 26 12 26 26 0 14-12 25-26 25H66c-12 0-22-10-22-22 0-11 9-20 20-20 10 0 18 8 18 18 0 8-6 14-14 14-6 0-11-5-11-11 0-5 4-9 9-9 4 0 7 3 7 7 0 3-2 5-5 5-2 0-4-2-4-4h-5c0 5 4 9 9 9 6 0 10-4 10-10 0-8-6-14-14-14-9 0-16 7-16 16 0 10 8 18 18 18h71c11 0 20-9 20-20s-9-21-20-21c-7 0-13 4-17 9l-6-5c-5-15-18-25-34-25-18 0-33 13-35 31l-1 5-5-1c-14 0-25 11-25 25 0 9 5 17 13 21l-4 8c-11-6-18-18-18-31z"/>
  <path fill="#F7F2E8" d="M109 44c0-9 7-16 16-16 8 0 15 7 15 15 0 7-5 12-12 12-6 0-10-4-10-10 0-4 3-7 7-7 3 0 5 2 5 5 0 2-1 3-3 3v5c5 0 8-4 8-9 0-6-5-11-11-11-7 0-12 5-12 12 0 8 6 14 14 14 9 0 16-7 16-16h-5c0 7-5 12-12 12-6 0-11-5-11-11z"/>
</svg>
