<svg xmlns="http://www.w3.org/2000/svg" viewBox="0 0 120 72" fill="none">
  <g stroke="#B2873D" stroke-linecap="round" stroke-linejoin="round">
    <path d="M9 48c0-11 9-19 20-19 2-12 13-21 26-21 14 0 25 9 27 22 4-3 9-5 15-5 13 0 23 10 23 22 0 12-10 21-23 21H36" stroke-width="5"/>
    <path d="M10 47c0 8 7 14 15 14 9 0 16-7 16-16 0-8-6-14-14-14-7 0-12 5-12 11 0 5 4 9 9 9 4 0 7-3 7-7" stroke-width="4"/>
    <path d="M56 31c0 8 6 14 14 14 7 0 12-5 12-12 0-6-5-11-11-11-5 0-9 4-9 9 0 4 3 7 7 7" stroke-width="4"/>
    <path d="M79 53h23" stroke-width="5"/>
  </g>
</svg>
